                                                                        S      1
,,,10HHub_torque,22HAutodesk Inventor 2019,7Hunknown,32,38,7,99,15,,1., G      1
2,2HMM,1,0.08,15H20200409.173112,0.01,10000.,4HSebi,,11,0,15H20200409.15G      2
1751;                                                                   G      3
     186       1                                                00000000D      1
     186            -179       1       0                               0D      2
     514       2                                                00010000D      3
     514                       1       1                               0D      4
     510       3                                                00010000D      5
     510            -179       1       1                               0D      6
     510       4                                                00010000D      7
     510            -179       1       1                               0D      8
     510       5                                                00010000D      9
     510            -179       1       1                               0D     10
     510       6                                                00010000D     11
     510            -179       1       1                               0D     12
     510       7                                                00010000D     13
     510            -179       1       1                               0D     14
     510       8                                                00010000D     15
     510            -179       1       1                               0D     16
     510       9                                                00010000D     17
     510            -179       1       1                               0D     18
     510      10                                                00010000D     19
     510            -179       1       1                               0D     20
     510      11                                                00010000D     21
     510            -179       1       1                               0D     22
     510      12                                                00010000D     23
     510            -179       1       1                               0D     24
     510      13                                                00010000D     25
     510            -179       1       1                               0D     26
     510      14                                                00010000D     27
     510            -179       1       1                               0D     28
     508      15                                                00010000D     29
     508                       2       1                               0D     30
     508      17                                                00010000D     31
     508                       2       1                               0D     32
     508      19                                                00010000D     33
     508                       2       1                               0D     34
     508      21                                                00010000D     35
     508                       2       1                               0D     36
     508      23                                                00010000D     37
     508                       2       1                               0D     38
     508      25                                                00010000D     39
     508                       1       1                               0D     40
     508      26                                                00010000D     41
     508                       1       1                               0D     42
     508      27                                                00010000D     43
     508                       2       1                               0D     44
     508      29                                                00010000D     45
     508                       1       1                               0D     46
     508      30                                                00010000D     47
     508                       1       1                               0D     48
     508      31                                                00010000D     49
     508                       2       1                               0D     50
     508      33                                                00010000D     51
     508                       1       1                               0D     52
     508      34                                                00010000D     53
     508                       1       1                               0D     54
     508      35                                                00010000D     55
     508                       1       1                               0D     56
     508      36                                                00010000D     57
     508                       1       1                               0D     58
     508      37                                                00010000D     59
     508                       1       1                               0D     60
     508      38                                                00010000D     61
     508                       1       1                               0D     62
     508      39                                                00010000D     63
     508                       2       1                               0D     64
     508      41                                                00010000D     65
     508                       1       1                               0D     66
     508      42                                                00010000D     67
     508                       1       1                               0D     68
     508      43                                                00010000D     69
     508                       1       1                               0D     70
     508      44                                                00010000D     71
     508                       1       1                               0D     72
     508      45                                                00010000D     73
     508                       1       1                               0D     74
     508      46                                                00010000D     75
     508                       1       1                               0D     76
     126      47                                                00010000D     77
     126       0               8       0                               0D     78
     126      55                                                00010000D     79
     126       0               8       0                               0D     80
     126      63                                                00010000D     81
     126       0               3       0                               0D     82
     126      66                                                00010000D     83
     126       0               9       0                               0D     84
     126      75                                                00010000D     85
     126       0               8       0                               0D     86
     126      83                                                00010000D     87
     126       0               8       0                               0D     88
     126      91                                                00010000D     89
     126       0               4       0                               0D     90
     126      95                                                00010000D     91
     126       0               9       0                               0D     92
     126     104                                                00010000D     93
     126       0               9       0                               0D     94
     126     113                                                00010000D     95
     126       0               8       0                               0D     96
     126     121                                                00010000D     97
     126       0               4       0                               0D     98
     126     125                                                00010000D     99
     126       0               9       0                               0D    100
     126     134                                                00010000D    101
     126       0               9       0                               0D    102
     126     143                                                00010000D    103
     126       0               8       0                               0D    104
     126     151                                                00010000D    105
     126       0               4       0                               0D    106
     126     155                                                00010000D    107
     126       0               9       0                               0D    108
     126     164                                                00010000D    109
     126       0               8       0                               0D    110
     126     172                                                00010000D    111
     126       0               4       0                               0D    112
     126     176                                                00010000D    113
     126       0               6       0                               0D    114
     126     182                                                00010000D    115
     126       0               7       0                               0D    116
     126     189                                                00010000D    117
     126       0               9       0                               0D    118
     126     198                                                00010000D    119
     126       0               6       0                               0D    120
     126     204                                                00010000D    121
     126       0               7       0                               0D    122
     126     211                                                00010000D    123
     126       0               3       0                               0D    124
     126     214                                                00010000D    125
     126       0               6       0                               0D    126
     126     220                                                00010000D    127
     126       0               7       0                               0D    128
     126     227                                                00010000D    129
     126       0               6       0                               0D    130
     126     233                                                00010000D    131
     126       0               7       0                               0D    132
     126     240                                                00010000D    133
     126       0               6       0                               0D    134
     126     246                                                00010000D    135
     126       0               7       0                               0D    136
     126     253                                                00010000D    137
     126       0               3       0                               0D    138
     126     256                                                00010000D    139
     126       0               6       0                               0D    140
     126     262                                                00010000D    141
     126       0               7       0                               0D    142
     126     269                                                00010000D    143
     126       0               8       0                               0D    144
     126     277                                                00010000D    145
     126       0               8       0                               0D    146
     126     285                                                00010000D    147
     126       0               2       0                               0D    148
     128     287                                                00010000D    149
     128       0    -179      16       0                               0D    150
     128     303                                                00010000D    151
     128       0    -179      16       0                               0D    152
     128     319                                                00010000D    153
     128       0    -179      17       0                               0D    154
     128     336                                                00010000D    155
     128       0    -179      17       0                               0D    156
     128     353                                                00010000D    157
     128       0    -179      18       0                               0D    158
     128     371                                                00010000D    159
     128       0    -179       3       0                               0D    160
     128     374                                                00010000D    161
     128       0    -179      15       0                               0D    162
     128     389                                                00010000D    163
     128       0    -179       3       0                               0D    164
     128     392                                                00010000D    165
     128       0    -179      15       0                               0D    166
     128     407                                                00010000D    167
     128       0    -179       3       0                               0D    168
     128     410                                                00010000D    169
     128       0    -179      16       0                               0D    170
     128     426                                                00010000D    171
     128       0    -179       5       0                               0D    172
     502     431                                                00010000D    173
     502                      10       1                               0D    174
     504     441                                                00010001D    175
     504                      10       1                               0D    176
     406     451                                                00000000D    177
     406                       1      15                               0D    178
     314     452                                                00000200D    179
     314                       1       0                               0D    180
186,3,1,0,0,1,177;                                                     1P      1
514,12,5,1,7,1,9,1,11,1,13,1,15,1,17,1,19,1,21,1,23,1,25,1,27,1;       3P      2
510,149,1,1,29;                                                        5P      3
510,151,1,1,31;                                                        7P      4
510,153,1,1,33;                                                        9P      5
510,155,1,1,35;                                                       11P      6
510,157,1,1,37;                                                       13P      7
510,159,2,1,39,41;                                                    15P      8
510,161,1,1,43;                                                       17P      9
510,163,2,1,45,47;                                                    19P     10
510,165,1,1,49;                                                       21P     11
510,167,6,1,51,53,55,57,59,61;                                        23P     12
510,169,1,1,63;                                                       25P     13
510,171,6,1,65,67,69,71,73,75;                                        27P     14
508,5,0,175,1,0,0,0,175,2,0,0,0,175,3,1,0,0,175,4,0,0,0,175,3,0,      29P     15
0;                                                                    29P     16
508,5,0,175,5,0,0,0,175,6,0,0,0,175,7,1,0,0,175,8,0,0,0,175,7,0,      31P     17
0;                                                                    31P     18
508,5,0,175,9,0,0,0,175,10,0,0,0,175,11,1,0,0,175,12,0,0,0,175,       33P     19
11,0,0;                                                               33P     20
508,5,0,175,13,0,0,0,175,14,0,0,0,175,15,1,0,0,175,16,0,0,0,175,      35P     21
15,0,0;                                                               35P     22
508,6,0,175,17,1,0,0,175,18,1,0,0,175,19,0,0,0,175,20,0,0,0,175,      37P     23
18,0,0,0,175,21,1,0;                                                  37P     24
508,2,0,175,22,0,0,0,175,23,0,0;                                      39P     25
508,2,0,175,19,1,0,0,175,20,1,0;                                      41P     26
508,6,0,175,22,1,0,0,175,24,1,0,0,175,25,0,0,0,175,26,0,0,0,175,      43P     27
24,0,0,0,175,23,1,0;                                                  43P     28
508,2,0,175,27,0,0,0,175,28,0,0;                                      45P     29
508,2,0,175,25,1,0,0,175,26,1,0;                                      47P     30
508,6,0,175,29,0,0,0,175,30,0,0,0,175,31,1,0,0,175,28,1,0,0,175,      49P     31
27,1,0,0,175,31,0,0;                                                  49P     32
508,2,0,175,32,0,0,0,175,33,0,0;                                      51P     33
508,1,0,175,4,1,0;                                                    53P     34
508,1,0,175,8,1,0;                                                    55P     35
508,1,0,175,12,1,0;                                                   57P     36
508,1,0,175,16,1,0;                                                   59P     37
508,2,0,175,29,1,0,0,175,30,1,0;                                      61P     38
508,6,0,175,34,0,0,0,175,35,0,0,0,175,36,1,0,0,175,33,1,0,0,175,      63P     39
32,1,0,0,175,36,0,0;                                                  63P     40
508,2,0,175,34,1,0,0,175,35,1,0;                                      65P     41
508,2,0,175,1,1,0,0,175,2,1,0;                                        67P     42
508,2,0,175,5,1,0,0,175,6,1,0;                                        69P     43
508,2,0,175,9,1,0,0,175,10,1,0;                                       71P     44
508,2,0,175,13,1,0,0,175,14,1,0;                                      73P     45
508,2,0,175,17,0,0,0,175,21,0,0;                                      75P     46
126,4,2,0,0,0,0,3.16196655436806D-31,3.16196655436806D-31,            77P     47
3.16196655436806D-31,1.5707963267949,1.5707963267949,                 77P     48
3.14159265358979,3.14159265358979,3.14159265358979,1.,                77P     49
0.707106781186547,1.,0.707106781186547,1.,1.75,                       77P     50
1.6941278461703D-46,-7.1,1.75,5.35782974626967D-16,-8.85,             77P     51
1.07156594925393D-16,5.35782974626967D-16,-8.85,-1.75,                77P     52
5.35782974626967D-16,-8.85,-1.75,6.56144904914563D-32,-7.1,           77P     53
3.16196655436806D-31,3.14159265358979,0.,0.,0.;                       77P     54
126,4,2,0,0,0,0,3.14159265358979,3.14159265358979,                    79P     55
3.14159265358979,4.71238898038469,4.71238898038469,                   79P     56
6.28318530717959,6.28318530717959,6.28318530717959,1.,                79P     57
0.707106781186547,1.,0.707106781186547,1.,-1.75,                      79P     58
6.56144904914563D-32,-7.1,-1.75,-5.35782974626967D-16,-5.35,          79P     59
-3.2146978477618D-16,-5.35782974626967D-16,-5.35,1.75,                79P     60
-5.35782974626967D-16,-5.35,1.75,-1.31228980982913D-31,-7.1,          79P     61
3.14159265358979,6.28318530717959,0.,0.,0.;                           79P     62
126,1,1,0,0,1,0,-16.3747939697274,-16.3747939697274,                  81P     63
-15.1176511125845,-15.1176511125845,1.,1.,-1.75,0.,-7.1,-1.75,        81P     64
2.2,-7.1,-16.3747939697274,-15.1176511125845,0.,0.,0.;                81P     65
126,8,2,0,1,0,0,-3.14159265358979,-3.14159265358979,                  83P     66
-3.14159265358979,-1.5707963267949,-1.5707963267949,0.,0.,            83P     67
1.5707963267949,1.5707963267949,3.14159265358979,                     83P     68
3.14159265358979,3.14159265358979,1.,0.707106781186547,1.,            83P     69
0.707106781186547,1.,0.707106781186547,1.,0.707106781186547,1.,       83P     70
-1.75,2.2,-7.1,-1.75,2.2,-8.85,1.07156594925393D-16,2.2,-8.85,        83P     71
1.75,2.2,-8.85,1.75,2.2,-7.1,1.75,2.2,-5.35,                          83P     72
1.07156594925393D-16,2.2,-5.35,-1.75,2.2,-5.35,-1.75,2.2,-7.1,        83P     73
-3.14159265358979,3.14159265358979,0.,0.,0.;                          83P     74
126,4,2,0,0,0,0,3.32536236199373D-31,3.32536236199373D-31,            85P     75
3.32536236199373D-31,1.5707963267949,1.5707963267949,                 85P     76
3.14159265358979,3.14159265358979,3.14159265358979,1.,                85P     77
0.707106781186547,1.,0.707106781186547,1.,1.75,                       85P     78
-4.44089209850063D-15,7.1,1.75,-3.90510912387366D-15,5.35,            85P     79
1.07156594925393D-16,-3.90510912387366D-15,5.35,-1.75,                85P     80
-3.90510912387366D-15,5.35,-1.75,-4.44089209850063D-15,7.1,           85P     81
3.32536236199373D-31,3.14159265358979,0.,0.,0.;                       85P     82
126,4,2,0,0,0,0,3.14159265358979,3.14159265358979,                    87P     83
3.14159265358979,4.71238898038469,4.71238898038469,                   87P     84
6.28318530717959,6.28318530717959,6.28318530717959,1.,                87P     85
0.707106781186547,1.,0.707106781186547,1.,-1.75,                      87P     86
-4.44089209850063D-15,7.1,-1.75,-4.97667507312759D-15,8.85,           87P     87
-3.2146978477618D-16,-4.97667507312759D-15,8.85,1.75,                 87P     88
-4.97667507312759D-15,8.85,1.75,-4.44089209850063D-15,7.1,            87P     89
3.14159265358979,6.28318530717959,0.,0.,0.;                           87P     90
126,1,1,0,0,1,0,-16.3747939697274,-16.3747939697274,                  89P     91
-15.1176511125845,-15.1176511125845,1.,1.,-1.75,                      89P     92
-4.44089209850063D-15,7.1,-1.75,2.2,7.1,-16.3747939697274,            89P     93
-15.1176511125845,0.,0.,0.;                                           89P     94
126,8,2,0,1,0,0,-3.14159265358979,-3.14159265358979,                  91P     95
-3.14159265358979,-1.5707963267949,-1.5707963267949,0.,0.,            91P     96
1.5707963267949,1.5707963267949,3.14159265358979,                     91P     97
3.14159265358979,3.14159265358979,1.,0.707106781186547,1.,            91P     98
0.707106781186547,1.,0.707106781186547,1.,0.707106781186547,1.,       91P     99
-1.75,2.2,7.1,-1.75,2.2,5.35,1.07156594925393D-16,2.2,5.35,1.75,      91P    100
2.2,5.35,1.75,2.2,7.1,1.75,2.2,8.85,1.07156594925393D-16,2.2,         91P    101
8.85,-1.75,2.2,8.85,-1.75,2.2,7.1,-3.14159265358979,                  91P    102
3.14159265358979,0.,0.,0.;                                            91P    103
126,4,2,0,0,0,0,-6.25579671573579D-47,-6.25579671573579D-47,          93P    104
-6.25579671573579D-47,1.5707963267949,1.5707963267949,                93P    105
3.14159265358979,3.14159265358979,3.14159265358979,1.,                93P    106
0.707106781186547,1.,0.707106781186547,1.,-5.35,                      93P    107
-3.35174937301853D-62,1.09476442525376D-46,-5.35,                     93P    108
5.35782974626967D-16,-1.75,-7.1,5.35782974626967D-16,-1.75,           93P    109
-8.85,5.35782974626967D-16,-1.75,-8.85,6.56144904914563D-32,          93P    110
-2.14313189850787D-16,-6.25579671573579D-47,3.14159265358979,0.,      93P    111
0.,0.;                                                                93P    112
126,4,2,0,0,0,0,3.14159265358979,3.14159265358979,                    95P    113
3.14159265358979,4.71238898038469,4.71238898038469,                   95P    114
6.28318530717959,6.28318530717959,6.28318530717959,1.,                95P    115
0.707106781186547,1.,0.707106781186547,1.,-8.85,                      95P    116
6.56144904914563D-32,-2.14313189850787D-16,-8.85,                     95P    117
-5.35782974626967D-16,1.75,-7.1,-5.35782974626967D-16,1.75,           95P    118
-5.35,-5.35782974626967D-16,1.75,-5.35,-1.31228980982913D-31,         95P    119
4.28626379701574D-16,3.14159265358979,6.28318530717959,0.,0.,0.;      95P    120
126,1,1,0,0,1,0,-16.3747939697274,-16.3747939697274,                  97P    121
-15.1176511125845,-15.1176511125845,1.,1.,-8.85,0.,0.,-8.85,2.2,      97P    122
6.73555739531044D-16,-16.3747939697274,-15.1176511125845,0.,0.,       97P    123
0.;                                                                   97P    124
126,8,2,0,1,0,0,-3.14159265358979,-3.14159265358979,                  99P    125
-3.14159265358979,-1.5707963267949,-1.5707963267949,0.,0.,            99P    126
1.5707963267949,1.5707963267949,3.14159265358979,                     99P    127
3.14159265358979,3.14159265358979,1.,0.707106781186546,1.,            99P    128
0.707106781186547,1.,0.707106781186547,1.,0.707106781186547,1.,       99P    129
-8.85,2.2,4.59242549680257D-16,-8.85,2.2,-1.75,-7.1,2.2,-1.75,        99P    130
-5.35,2.2,-1.75,-5.35,2.2,6.73555739531044D-16,-5.35,2.2,1.75,        99P    131
-7.1,2.2,1.75,-8.85,2.2,1.75,-8.85,2.2,8.8786892938183D-16,           99P    132
-3.14159265358979,3.14159265358979,0.,0.,0.;                          99P    133
126,4,2,0,0,0,0,-6.25579671573579D-47,-6.25579671573579D-47,         101P    134
-6.25579671573579D-47,1.5707963267949,1.5707963267949,               101P    135
3.14159265358979,3.14159265358979,3.14159265358979,1.,               101P    136
0.707106781186547,1.,0.707106781186547,1.,8.85,                      101P    137
-3.35174937301853D-62,1.09476442525376D-46,8.85,                     101P    138
5.35782974626967D-16,-1.75,7.1,5.35782974626967D-16,-1.75,5.35,      101P    139
5.35782974626967D-16,-1.75,5.35,6.56144904914563D-32,                101P    140
-2.14313189850787D-16,-6.25579671573579D-47,3.14159265358979,0.,     101P    141
0.,0.;                                                               101P    142
126,4,2,0,0,0,0,3.14159265358979,3.14159265358979,                   103P    143
3.14159265358979,4.71238898038469,4.71238898038469,                  103P    144
6.28318530717959,6.28318530717959,6.28318530717959,1.,               103P    145
0.707106781186547,1.,0.707106781186547,1.,5.35,                      103P    146
6.56144904914563D-32,-2.14313189850787D-16,5.35,                     103P    147
-5.35782974626967D-16,1.75,7.1,-5.35782974626967D-16,1.75,8.85,      103P    148
-5.35782974626967D-16,1.75,8.85,-1.31228980982913D-31,               103P    149
4.28626379701574D-16,3.14159265358979,6.28318530717959,0.,0.,0.;     103P    150
126,1,1,0,0,1,0,-16.3747939697274,-16.3747939697274,                 105P    151
-15.1176511125845,-15.1176511125845,1.,1.,5.35,0.,0.,5.35,2.2,       105P    152
6.73555739531044D-16,-16.3747939697274,-15.1176511125845,0.,0.,      105P    153
0.;                                                                  105P    154
126,8,2,0,1,0,0,-3.14159265358979,-3.14159265358979,                 107P    155
-3.14159265358979,-1.5707963267949,-1.5707963267949,0.,0.,           107P    156
1.5707963267949,1.5707963267949,3.14159265358979,                    107P    157
3.14159265358979,3.14159265358979,1.,0.707106781186546,1.,           107P    158
0.707106781186547,1.,0.707106781186547,1.,0.707106781186547,1.,      107P    159
5.35,2.2,4.59242549680257D-16,5.35,2.2,-1.75,7.1,2.2,-1.75,8.85,     107P    160
2.2,-1.75,8.85,2.2,6.73555739531044D-16,8.85,2.2,1.75,7.1,2.2,       107P    161
1.75,5.35,2.2,1.75,5.35,2.2,8.8786892938183D-16,                     107P    162
-3.14159265358979,3.14159265358979,0.,0.,0.;                         107P    163
126,4,2,0,0,0,0,-1.5707963267949,-1.5707963267949,                   109P    164
-1.5707963267949,0.,0.,1.5707963267949,1.5707963267949,              109P    165
1.5707963267949,1.,0.707106781186547,1.,0.707106781186547,1.,        109P    166
1.01033360929657D-16,1.38777878078145D-16,-1.65,1.65,                109P    167
1.38777878078145D-16,-1.65,1.65,-3.66388926570139D-16,               109P    168
-1.12174256541789D-31,1.65,-8.71555731218422D-16,1.65,               109P    169
1.01033360929657D-16,-8.71555731218422D-16,1.65,                     109P    170
-1.5707963267949,1.5707963267949,0.,0.,0.;                           109P    171
126,1,1,0,0,1,0,-0.378787878787879,-0.378787878787879,               111P    172
0.378787878787879,0.378787878787879,1.,1.,0.,                        111P    173
-8.32667268468867D-16,1.65,0.,1.25,1.65,-0.378787878787879,          111P    174
0.378787878787879,0.,0.,0.;                                          111P    175
126,4,2,0,0,0,0,-1.5707963267949,-1.5707963267949,                   113P    176
-1.5707963267949,0.,0.,1.5707963267949,1.5707963267949,              113P    177
1.5707963267949,1.,0.707106781186547,1.,0.707106781186548,1.,        113P    178
1.01033360929657D-16,1.25,-1.65,1.65,1.25,-1.65,1.65,1.25,           113P    179
3.82702124733548D-16,1.65,1.25,1.65,1.01033360929657D-16,1.25,       113P    180
1.65,-1.5707963267949,1.5707963267949,0.,0.,0.;                      113P    181
126,4,2,0,0,0,0,1.5707963267949,1.5707963267949,1.5707963267949,     115P    182
3.14159265358979,3.14159265358979,4.71238898038469,                  115P    183
4.71238898038469,4.71238898038469,1.,0.707106781186548,1.,           115P    184
0.707106781186547,1.,1.01033360929657D-16,1.25,1.65,-1.65,1.25,      115P    185
1.65,-1.65,1.25,5.84768846592861D-16,-1.65,1.25,-1.65,               115P    186
-3.0310008278897D-16,1.25,-1.65,1.5707963267949,                     115P    187
4.71238898038469,0.,0.,0.;                                           115P    188
126,4,2,0,0,0,0,1.5707963267949,1.5707963267949,1.5707963267949,     117P    189
3.14159265358979,3.14159265358979,4.71238898038469,                  117P    190
4.71238898038469,4.71238898038469,1.,0.707106781186548,1.,           117P    191
0.707106781186547,1.,1.01033360929657D-16,-8.71555731218422D-16,     117P    192
1.65,-1.65,-8.71555731218422D-16,1.65,-1.65,                         117P    193
-3.66388926570139D-16,2.02066721859313D-16,-1.65,                    117P    194
1.38777878078145D-16,-1.65,-3.0310008278897D-16,                     117P    195
1.38777878078145D-16,-1.65,1.5707963267949,4.71238898038469,0.,      117P    196
0.,0.;                                                               117P    197
126,4,2,0,0,0,0,-1.5707963267949,-1.5707963267949,                   119P    198
-1.5707963267949,0.,0.,1.5707963267949,1.5707963267949,              119P    199
1.5707963267949,1.,0.707106781186548,1.,0.707106781186547,1.,        119P    200
1.68388934882761D-16,1.25,-2.75,2.75,1.25,-2.75,2.75,1.25,           119P    201
3.82702124733548D-16,2.75,1.25,2.75,1.68388934882761D-16,1.25,       119P    202
2.75,-1.5707963267949,1.5707963267949,0.,0.,0.;                      119P    203
126,4,2,0,0,0,0,1.5707963267949,1.5707963267949,1.5707963267949,     121P    204
3.14159265358979,3.14159265358979,4.71238898038469,                  121P    205
4.71238898038469,4.71238898038469,1.,0.707106781186547,1.,           121P    206
0.707106781186548,1.,1.68388934882761D-16,1.25,2.75,-2.75,1.25,      121P    207
2.75,-2.75,1.25,7.1947999449907D-16,-2.75,1.25,-2.75,                121P    208
-5.05166804648283D-16,1.25,-2.75,1.5707963267949,                    121P    209
4.71238898038469,0.,0.,0.;                                           121P    210
126,1,1,0,0,1,0,-0.609090909090909,-0.609090909090909,               123P    211
0.609090909090909,0.609090909090909,1.,1.,0.,1.25,2.75,0.,4.6,       123P    212
2.75,-0.609090909090909,0.609090909090909,0.,0.,0.;                  123P    213
126,4,2,0,0,0,0,-1.5707963267949,-1.5707963267949,                   125P    214
-1.5707963267949,0.,0.,1.5707963267949,1.5707963267949,              125P    215
1.5707963267949,1.,0.707106781186548,1.,0.707106781186548,1.,        125P    216
1.68388934882761D-16,4.6,-2.75,2.75,4.6,-2.75,2.75,4.6,              125P    217
1.40834381901946D-15,2.75,4.6,2.75,1.68388934882761D-16,4.6,         125P    218
2.75,-1.5707963267949,1.5707963267949,0.,0.,0.;                      125P    219
126,4,2,0,0,0,0,1.5707963267949,1.5707963267949,1.5707963267949,     127P    220
3.14159265358979,3.14159265358979,4.71238898038469,                  127P    221
4.71238898038469,4.71238898038469,1.,0.707106781186548,1.,           127P    222
0.707106781186548,1.,1.68388934882761D-16,4.6,2.75,-2.75,4.6,        127P    223
2.75,-2.75,4.6,1.74512168878498D-15,-2.75,4.6,-2.75,                 127P    224
-5.05166804648283D-16,4.6,-2.75,1.5707963267949,                     127P    225
4.71238898038469,0.,0.,0.;                                           127P    226
126,4,2,0,0,0,0,-1.5707963267949,-1.5707963267949,                   129P    227
-1.5707963267949,0.,0.,1.5707963267949,1.5707963267949,              129P    228
1.5707963267949,1.,0.707106781186548,1.,0.707106781186548,1.,        129P    229
2.78607146806023D-16,4.6,-4.55,4.55,4.6,-4.55,4.55,4.6,              129P    230
1.40834381901946D-15,4.55,4.6,4.55,2.78607146806023D-16,4.6,         129P    231
4.55,-1.5707963267949,1.5707963267949,0.,0.,0.;                      129P    232
126,4,2,0,0,0,0,1.5707963267949,1.5707963267949,1.5707963267949,     131P    233
3.14159265358979,3.14159265358979,4.71238898038469,                  131P    234
4.71238898038469,4.71238898038469,1.,0.707106781186548,1.,           131P    235
0.707106781186548,1.,2.78607146806023D-16,4.6,4.55,-4.55,4.6,        131P    236
4.55,-4.55,4.6,1.9655581126315D-15,-4.55,4.6,-4.55,                  131P    237
-8.35821440418068D-16,4.6,-4.55,1.5707963267949,                     131P    238
4.71238898038469,0.,0.,0.;                                           131P    239
126,4,2,0,0,0,0,-1.5707963267949,-1.5707963267949,                   133P    240
-1.5707963267949,0.,0.,1.5707963267949,1.5707963267949,              133P    241
1.5707963267949,1.,0.707106781186548,1.,0.707106781186548,1.,        133P    242
2.78607146806023D-16,2.2,-4.55,4.55,2.2,-4.55,4.55,2.2,              133P    243
6.73555739531043D-16,4.55,2.2,4.55,2.78607146806023D-16,2.2,         133P    244
4.55,-1.5707963267949,1.5707963267949,0.,0.,0.;                      133P    245
126,4,2,0,0,0,0,1.5707963267949,1.5707963267949,1.5707963267949,     135P    246
3.14159265358979,3.14159265358979,4.71238898038469,                  135P    247
4.71238898038469,4.71238898038469,1.,0.707106781186548,1.,           135P    248
0.707106781186548,1.,2.78607146806023D-16,2.2,4.55,-4.55,2.2,        135P    249
4.55,-4.55,2.2,1.23077003314309D-15,-4.55,2.2,-4.55,                 135P    250
-8.35821440418068D-16,2.2,-4.55,1.5707963267949,                     135P    251
4.71238898038469,0.,0.,0.;                                           135P    252
126,1,1,0,0,1,0,-0.263736263736264,-0.263736263736264,               137P    253
0.263736263736264,0.263736263736264,1.,1.,0.,2.2,4.55,0.,4.6,        137P    254
4.55,-0.263736263736264,0.263736263736264,0.,0.,0.;                  137P    255
126,4,2,0,0,0,0,-1.5707963267949,-1.5707963267949,                   139P    256
-1.5707963267949,0.,0.,1.5707963267949,1.5707963267949,              139P    257
1.5707963267949,1.,0.707106781186548,1.,0.707106781186548,1.,        139P    258
6.12323399573677D-16,2.2,-10.,10.,2.2,-10.,10.,2.2,                  139P    259
6.73555739531044D-16,10.,2.2,10.,6.12323399573677D-16,2.2,10.,       139P    260
-1.5707963267949,1.5707963267949,0.,0.,0.;                           139P    261
126,4,2,0,0,0,0,1.5707963267949,1.5707963267949,1.5707963267949,     141P    262
3.14159265358979,3.14159265358979,4.71238898038469,                  141P    263
4.71238898038469,4.71238898038469,1.,0.707106781186548,1.,           141P    264
0.707106781186548,1.,6.12323399573677D-16,2.2,10.,-10.,2.2,10.,      141P    265
-10.,2.2,1.8982025386784D-15,-10.,2.2,-10.,                          141P    266
-1.83697019872103D-15,2.2,-10.,1.5707963267949,4.71238898038469,     141P    267
0.,0.,0.;                                                            141P    268
126,4,2,0,0,0,0,-1.5707963267949,-1.5707963267949,                   143P    269
-1.5707963267949,0.,0.,1.5707963267949,1.5707963267949,              143P    270
1.5707963267949,1.,0.707106781186548,1.,0.707106781186548,1.,        143P    271
6.12323399573677D-16,1.2490009027033D-15,-10.,10.,                   143P    272
1.2490009027033D-15,-10.,10.,-1.81261609516508D-15,                  143P    273
-5.54953624756723D-31,10.,-4.87423309303346D-15,10.,                 143P    274
6.12323399573677D-16,-4.87423309303346D-15,10.,-1.5707963267949,     143P    275
1.5707963267949,0.,0.,0.;                                            143P    276
126,4,2,0,0,0,0,1.5707963267949,1.5707963267949,1.5707963267949,     145P    277
3.14159265358979,3.14159265358979,4.71238898038469,                  145P    278
4.71238898038469,4.71238898038469,1.,0.707106781186547,1.,           145P    279
0.707106781186548,1.,6.12323399573677D-16,-4.87423309303346D-15,     145P    280
10.,-10.,-4.87423309303346D-15,10.,-10.,-1.81261609516508D-15,       145P    281
1.22464679914735D-15,-10.,1.2490009027033D-15,-10.,                  145P    282
-1.83697019872103D-15,1.2490009027033D-15,-10.,1.5707963267949,      145P    283
4.71238898038469,0.,0.,0.;                                           145P    284
126,1,1,0,0,1,0,-0.11,-0.11,0.11,0.11,1.,1.,0.,                      147P    285
-4.85722573273506D-15,10.,0.,2.2,10.,-0.11,0.11,0.,0.,0.;            147P    286
128,1,8,1,2,0,1,0,0,1,-16.3747939697274,-16.3747939697274,           149P    287
-15.1176511125845,-15.1176511125845,-3.14159265358979,               149P    288
-3.14159265358979,-3.14159265358979,-1.5707963267949,                149P    289
-1.5707963267949,0.,0.,1.5707963267949,1.5707963267949,              149P    290
3.14159265358979,3.14159265358979,3.14159265358979,1.,1.,            149P    291
0.707106781186548,0.707106781186548,1.,1.,0.707106781186548,         149P    292
0.707106781186548,1.,1.,0.707106781186548,0.707106781186548,1.,      149P    293
1.,0.707106781186548,0.707106781186548,1.,1.,-1.75,2.2,-7.1,         149P    294
-1.75,0.,-7.1,-1.75,2.2,-8.85,-1.75,5.35782974626967D-16,-8.85,      149P    295
0.,2.2,-8.85,0.,5.35782974626967D-16,-8.85,1.75,2.2,-8.85,1.75,      149P    296
5.35782974626967D-16,-8.85,1.75,2.2,-7.1,1.75,0.,-7.1,1.75,2.2,      149P    297
-5.35,1.75,-5.35782974626967D-16,-5.35,0.,2.2,-5.35,0.,              149P    298
-5.35782974626967D-16,-5.35,-1.75,2.2,-5.35,-1.75,                   149P    299
-5.35782974626967D-16,-5.35,-1.75,2.2,-7.1,-1.75,0.,-7.1,            149P    300
-16.3747939697274,-15.1176511125845,-3.14159265358979,               149P    301
3.14159265358979;                                                    149P    302
128,1,8,1,2,0,1,0,0,1,-16.3747939697274,-16.3747939697274,           151P    303
-15.1176511125845,-15.1176511125845,-3.14159265358979,               151P    304
-3.14159265358979,-3.14159265358979,-1.5707963267949,                151P    305
-1.5707963267949,0.,0.,1.5707963267949,1.5707963267949,              151P    306
3.14159265358979,3.14159265358979,3.14159265358979,1.,1.,            151P    307
0.707106781186548,0.707106781186548,1.,1.,0.707106781186548,         151P    308
0.707106781186548,1.,1.,0.707106781186548,0.707106781186548,1.,      151P    309
1.,0.707106781186548,0.707106781186548,1.,1.,-1.75,2.2,7.1,          151P    310
-1.75,-4.44089209850063D-15,7.1,-1.75,2.2,5.35,-1.75,                151P    311
-3.90510912387366D-15,5.35,0.,2.2,5.35,0.,-3.90510912387366D-15,     151P    312
5.35,1.75,2.2,5.35,1.75,-3.90510912387366D-15,5.35,1.75,2.2,7.1,     151P    313
1.75,-4.44089209850063D-15,7.1,1.75,2.2,8.85,1.75,                   151P    314
-4.97667507312759D-15,8.85,0.,2.2,8.85,0.,-4.97667507312759D-15,     151P    315
8.85,-1.75,2.2,8.85,-1.75,-4.97667507312759D-15,8.85,-1.75,2.2,      151P    316
7.1,-1.75,-4.44089209850063D-15,7.1,-16.3747939697274,               151P    317
-15.1176511125845,-3.14159265358979,3.14159265358979;                151P    318
128,1,8,1,2,0,1,0,0,1,-16.3747939697274,-16.3747939697274,           153P    319
-15.1176511125845,-15.1176511125845,-3.14159265358979,               153P    320
-3.14159265358979,-3.14159265358979,-1.5707963267949,                153P    321
-1.5707963267949,0.,0.,1.5707963267949,1.5707963267949,              153P    322
3.14159265358979,3.14159265358979,3.14159265358979,1.,1.,            153P    323
0.707106781186548,0.707106781186548,1.,1.,0.707106781186548,         153P    324
0.707106781186548,1.,1.,0.707106781186548,0.707106781186548,1.,      153P    325
1.,0.707106781186548,0.707106781186548,1.,1.,-8.85,2.2,              153P    326
6.73555739531044D-16,-8.85,0.,0.,-8.85,2.2,-1.75,-8.85,              153P    327
5.35782974626967D-16,-1.75,-7.1,2.2,-1.75,-7.1,                      153P    328
5.35782974626967D-16,-1.75,-5.35,2.2,-1.75,-5.35,                    153P    329
5.35782974626967D-16,-1.75,-5.35,2.2,6.73555739531044D-16,-5.35,     153P    330
0.,0.,-5.35,2.2,1.75,-5.35,-5.35782974626967D-16,1.75,-7.1,2.2,      153P    331
1.75,-7.1,-5.35782974626967D-16,1.75,-8.85,2.2,1.75,-8.85,           153P    332
-5.35782974626967D-16,1.75,-8.85,2.2,6.73555739531044D-16,-8.85,     153P    333
0.,0.,-16.3747939697274,-15.1176511125845,-3.14159265358979,         153P    334
3.14159265358979;                                                    153P    335
128,1,8,1,2,0,1,0,0,1,-16.3747939697274,-16.3747939697274,           155P    336
-15.1176511125845,-15.1176511125845,-3.14159265358979,               155P    337
-3.14159265358979,-3.14159265358979,-1.5707963267949,                155P    338
-1.5707963267949,0.,0.,1.5707963267949,1.5707963267949,              155P    339
3.14159265358979,3.14159265358979,3.14159265358979,1.,1.,            155P    340
0.707106781186548,0.707106781186548,1.,1.,0.707106781186548,         155P    341
0.707106781186548,1.,1.,0.707106781186548,0.707106781186548,1.,      155P    342
1.,0.707106781186548,0.707106781186548,1.,1.,5.35,2.2,               155P    343
6.73555739531044D-16,5.35,0.,0.,5.35,2.2,-1.75,5.35,                 155P    344
5.35782974626967D-16,-1.75,7.1,2.2,-1.75,7.1,                        155P    345
5.35782974626967D-16,-1.75,8.85,2.2,-1.75,8.85,                      155P    346
5.35782974626967D-16,-1.75,8.85,2.2,6.73555739531044D-16,8.85,       155P    347
0.,0.,8.85,2.2,1.75,8.85,-5.35782974626967D-16,1.75,7.1,2.2,         155P    348
1.75,7.1,-5.35782974626967D-16,1.75,5.35,2.2,1.75,5.35,              155P    349
-5.35782974626967D-16,1.75,5.35,2.2,6.73555739531044D-16,5.35,       155P    350
0.,0.,-16.3747939697274,-15.1176511125845,-3.14159265358979,         155P    351
3.14159265358979;                                                    155P    352
128,1,8,1,2,0,1,0,0,1,-0.378787878787879,-0.378787878787879,         157P    353
0.378787878787879,0.378787878787879,-3.14159265358979,               157P    354
-3.14159265358979,-3.14159265358979,-1.5707963267949,                157P    355
-1.5707963267949,0.,0.,1.5707963267949,1.5707963267949,              157P    356
3.14159265358979,3.14159265358979,3.14159265358979,1.,1.,            157P    357
0.707106781186548,0.707106781186548,1.,1.,0.707106781186548,         157P    358
0.707106781186548,1.,1.,0.707106781186548,0.707106781186548,1.,      157P    359
1.,0.707106781186548,0.707106781186548,1.,1.,0.,1.25,1.65,0.,        157P    360
-8.32667268468867D-16,1.65,-1.65,1.25,1.65,-1.65,                    157P    361
-8.32667268468867D-16,1.65,-1.65,1.25,3.82702124733548D-16,          157P    362
-1.65,-3.46944695195361D-16,-1.23259516440783D-31,-1.65,1.25,        157P    363
-1.65,-1.65,1.38777878078144D-16,-1.65,0.,1.25,-1.65,0.,             157P    364
1.38777878078145D-16,-1.65,1.65,1.25,-1.65,1.65,                     157P    365
1.38777878078144D-16,-1.65,1.65,1.25,3.82702124733548D-16,1.65,      157P    366
-3.46944695195361D-16,-1.23259516440783D-31,1.65,1.25,1.65,1.65,     157P    367
-8.32667268468867D-16,1.65,0.,1.25,1.65,0.,                          157P    368
-8.32667268468867D-16,1.65,-0.378787878787879,0.378787878787879,     157P    369
-3.14159265358979,3.14159265358979;                                  157P    370
128,1,1,1,1,0,0,1,0,0,-0.001,-0.001,0.551,0.551,-0.276,-0.276,       159P    371
0.276,0.276,1.,1.,1.,1.,-2.76,1.25,-2.76,-2.76,1.25,2.76,2.76,       159P    372
1.25,-2.76,2.76,1.25,2.76,-0.001,0.551,-0.276,0.276;                 159P    373
128,1,8,1,2,0,1,0,0,1,-0.609090909090909,-0.609090909090909,         161P    374
0.609090909090909,0.609090909090909,-3.14159265358979,               161P    375
-3.14159265358979,-3.14159265358979,-1.5707963267949,                161P    376
-1.5707963267949,0.,0.,1.5707963267949,1.5707963267949,              161P    377
3.14159265358979,3.14159265358979,3.14159265358979,1.,1.,            161P    378
0.707106781186548,0.707106781186548,1.,1.,0.707106781186548,         161P    379
0.707106781186548,1.,1.,0.707106781186548,0.707106781186548,1.,      161P    380
1.,0.707106781186548,0.707106781186548,1.,1.,0.,4.6,2.75,0.,         161P    381
1.25,2.75,-2.75,4.6,2.75,-2.75,1.25,2.75,-2.75,4.6,                  161P    382
1.40834381901946D-15,-2.75,1.25,3.82702124733548D-16,-2.75,4.6,      161P    383
-2.75,-2.75,1.25,-2.75,0.,4.6,-2.75,0.,1.25,-2.75,2.75,4.6,          161P    384
-2.75,2.75,1.25,-2.75,2.75,4.6,1.40834381901946D-15,2.75,1.25,       161P    385
3.82702124733548D-16,2.75,4.6,2.75,2.75,1.25,2.75,0.,4.6,2.75,       161P    386
0.,1.25,2.75,-0.609090909090909,0.609090909090909,                   161P    387
-3.14159265358979,3.14159265358979;                                  161P    388
128,1,1,1,1,0,0,1,0,0,-0.001,-0.001,0.911,0.911,-0.456,-0.456,       163P    389
0.456,0.456,1.,1.,1.,1.,-4.56,4.6,-4.56,-4.56,4.6,4.56,4.56,4.6,     163P    390
-4.56,4.56,4.6,4.56,-0.001,0.911,-0.456,0.456;                       163P    391
128,1,8,1,2,0,1,0,0,1,-0.263736263736264,-0.263736263736264,         165P    392
0.263736263736264,0.263736263736264,-3.14159265358979,               165P    393
-3.14159265358979,-3.14159265358979,-1.5707963267949,                165P    394
-1.5707963267949,0.,0.,1.5707963267949,1.5707963267949,              165P    395
3.14159265358979,3.14159265358979,3.14159265358979,1.,1.,            165P    396
0.707106781186548,0.707106781186548,1.,1.,0.707106781186548,         165P    397
0.707106781186548,1.,1.,0.707106781186548,0.707106781186548,1.,      165P    398
1.,0.707106781186548,0.707106781186548,1.,1.,0.,2.2,4.55,0.,4.6,     165P    399
4.55,-4.55,2.2,4.55,-4.55,4.6,4.55,-4.55,2.2,                        165P    400
6.73555739531044D-16,-4.55,4.6,1.40834381901946D-15,-4.55,2.2,       165P    401
-4.55,-4.55,4.6,-4.55,0.,2.2,-4.55,0.,4.6,-4.55,4.55,2.2,-4.55,      165P    402
4.55,4.6,-4.55,4.55,2.2,6.73555739531044D-16,4.55,4.6,               165P    403
1.40834381901946D-15,4.55,2.2,4.55,4.55,4.6,4.55,0.,2.2,4.55,0.,     165P    404
4.6,4.55,-0.263736263736264,0.263736263736264,-3.14159265358979,     165P    405
3.14159265358979;                                                    165P    406
128,1,1,1,1,0,0,1,0,0,-0.001,-0.001,2.001,2.001,-1.001,-1.001,       167P    407
1.001,1.001,1.,1.,1.,1.,-10.01,2.2,-10.01,-10.01,2.2,10.01,          167P    408
10.01,2.2,-10.01,10.01,2.2,10.01,-0.001,2.001,-1.001,1.001;          167P    409
128,1,8,1,2,0,1,0,0,1,-0.11,-0.11,0.11,0.11,-3.14159265358979,       169P    410
-3.14159265358979,-3.14159265358979,-1.5707963267949,                169P    411
-1.5707963267949,0.,0.,1.5707963267949,1.5707963267949,              169P    412
3.14159265358979,3.14159265358979,3.14159265358979,1.,1.,            169P    413
0.707106781186548,0.707106781186548,1.,1.,0.707106781186548,         169P    414
0.707106781186548,1.,1.,0.707106781186548,0.707106781186548,1.,      169P    415
1.,0.707106781186548,0.707106781186548,1.,1.,0.,                     169P    416
-4.85722573273506D-15,10.,0.,2.2,10.,-10.,-4.85722573273506D-15,     169P    417
10.,-10.,2.2,10.,-10.,-1.80411241501588D-15,                         169P    418
-5.54667823983524D-31,-10.,2.2,6.73555739531044D-16,-10.,            169P    419
1.2490009027033D-15,-10.,-10.,2.2,-10.,0.,1.2490009027033D-15,       169P    420
-10.,0.,2.2,-10.,10.,1.2490009027033D-15,-10.,10.,2.2,-10.,10.,      169P    421
-1.80411241501588D-15,-5.54667823983524D-31,10.,2.2,                 169P    422
6.73555739531044D-16,10.,-4.85722573273506D-15,10.,10.,2.2,10.,      169P    423
0.,-4.85722573273506D-15,10.,0.,2.2,10.,-0.11,0.11,                  169P    424
-3.14159265358979,3.14159265358979;                                  169P    425
128,1,1,1,1,0,0,1,0,0,-1.166,-1.166,0.836,0.836,-1.001,-1.001,       171P    426
1.001,1.001,1.,1.,1.,1.,-10.01,-3.43106754143639D-15,10.01,          171P    427
-10.01,2.69828968829611D-15,-10.01,10.01,-3.43106754143639D-15,      171P    428
10.01,10.01,2.69828968829611D-15,-10.01,-1.166,0.836,-1.001,         171P    429
1.001;                                                               171P    430
502,28,1.75,1.80735914191641D-15,-7.1,-1.75,0.,-7.1,-1.75,2.2,       173P    431
-7.1,1.75,-2.54013699505669D-15,7.1,-1.75,-4.44089209850063D-15,     173P    432
7.1,-1.75,2.19999999999999,7.1,-5.35,-3.66388926570139D-16,          173P    433
-1.12174256541789D-31,-8.85,0.,0.,-8.85,2.2,8.8786892938183D-16,     173P    434
8.85,-3.66388926570139D-16,-1.12174256541789D-31,5.35,0.,0.,         173P    435
5.35,2.2,8.8786892938183D-16,0.,1.38777878078145D-16,-1.65,0.,       173P    436
-8.32667268468867D-16,1.65,0.,1.25,1.65,0.,1.25,-1.65,0.,1.25,       173P    437
-2.75,0.,1.25,2.75,0.,4.6,2.75,0.,4.6,-2.75,0.,4.6,-4.55,0.,4.6,     173P    438
4.55,0.,2.2,-4.55,0.,2.2,4.55,0.,2.2,-10.,0.,2.2,10.,0.,             173P    439
1.2490009027033D-15,-10.,0.,-4.85722573273506D-15,10.;               173P    440
504,36,77,173,1,173,2,79,173,2,173,1,81,173,2,173,3,83,173,3,        175P    441
173,3,85,173,4,173,5,87,173,5,173,4,89,173,5,173,6,91,173,6,173,     175P    442
6,93,173,7,173,8,95,173,8,173,7,97,173,8,173,9,99,173,9,173,9,       175P    443
101,173,10,173,11,103,173,11,173,10,105,173,11,173,12,107,173,       175P    444
12,173,12,109,173,13,173,14,111,173,14,173,15,113,173,16,173,15,     175P    445
115,173,15,173,16,117,173,14,173,13,119,173,17,173,18,121,173,       175P    446
18,173,17,123,173,18,173,19,125,173,20,173,19,127,173,19,173,20,     175P    447
129,173,21,173,22,131,173,22,173,21,133,173,23,173,24,135,173,       175P    448
24,173,23,137,173,24,173,22,139,173,25,173,26,141,173,26,173,25,     175P    449
143,173,27,173,28,145,173,28,173,27,147,173,28,173,26;               175P    450
406,1,6HSolid1;                                                      177P    451
314,74.9019607843137,74.9019607843137,74.9019607843137,;             179P    452
S      1G      3D    180P    452                                        T      1
